<svg xmlns="http://www.w3.org/2000/svg" version="1.1" xmlns:xlink="http://www.w3.org/1999/xlink" xmlns:svgjs="http://svgjs.dev/svgjs" width="1500" height="818" viewBox="0 0 1500 818"><g transform="matrix(1,0,0,1,-0.9084522071641459,-0.7558465121366567)"><svg viewBox="0 0 396 216" data-background-color="#0930ec" preserveAspectRatio="xMidYMid meet" height="818" width="1500" xmlns="http://www.w3.org/2000/svg" xmlns:xlink="http://www.w3.org/1999/xlink"><g id="tight-bounds" transform="matrix(1,0,0,1,0.24008861730862918,0.19958783205564146)"><svg viewBox="0 0 395.52 215.60071035460987" height="215.60071035460987" width="395.52"><g><svg viewBox="0 0 395.52 215.60071035460987" height="215.60071035460987" width="395.52"><g><svg viewBox="0 0 395.52 215.60071035460987" height="215.60071035460987" width="395.52"><g id="textblocktransform"><svg viewBox="0 0 395.52 215.60071035460987" height="215.60071035460987" width="395.52" id="textblock"><g><svg viewBox="0 0 395.52 215.60071035460987" height="215.60071035460987" width="395.52"><path d="M394.594 46.242C392.735 23.863 387.435 17.642 387.435 17.642 371.165-5.409 350.86-0.441 332.619 2.871 300.414 3.005 268.339 7.929 236.208 10.57 168.767 10.972 100.749 4.348 33.643 20.685 27.339 25.698-6.54 21.67 1.121 49.107 3.129 60.52 10.456 73.187 10.232 83.66 11.236 85.495 12.631 81.288 13.226 83.929 15.309 91.046 18.711 87.689 21.501 91.896 17.614 103.13 20.403 112.485 23.062 122.287 18.377 124.838 12.371 123.63 9.675 132.089 9.396 138.221 7.89 137.057 6.235 136.789 5.026 136.61 2.59 137.281 2.999 139.206 4.394 145.785-1.594 149.59 2.162 156.035-0.422 163.017 3.948 169.06 3.353 176.624 3.278 178.146 3.687 179.444 4.338 179.802 7.22 181.726 3.018 185.486 3.464 189.559 33.029 217.399 65.104 198.153 95.394 210.954 103.259 202.002 97.346 214.132 100.489 212.252 102.943 210.059 104.728 219.145 107.499 213.997 107.927 212.52 107.276 209.029 108.8 209.7 109.6 210.059 110.307 209.969 110.418 207.91 110.586 204.822 109.117 206.746 108.726 205.135 112.947 196.989 111.906 216.369 115.866 215.564 115.68 213.192 114.528 209.79 116.889 210.238 119.232 206.836 119.306 204.016 121.389 211.67 121.463 213.326 121.835 214.49 122.43 215.295 128.938 206.97 135.409 218.249 142.233 214.49 146.417 210.372 150.433 216.728 154.672 215.161 156.16 213.908 157.666 211.67 159.098 215.43 176.632 216.235 195.319 212.878 211.943 215.564 256.364 210.551 303.836 217.623 350.674 210.998 361.719 208.447 373.192 204.822 383.958 201.912 383.958 201.912 392.679 193.945 392.679 158.139S394.538 126.808 394.817 98.296C395.096 69.785 396.398 68.622 394.538 46.242Z" opacity="1" fill="#ffffff" data-fill-palette-color="tertiary"></path><g transform="matrix(1,0,0,1,55.76832,26.230666666666668)"><svg width="283.98335999999995" viewBox="0.65 -36.05 89.28999999999999 51.3" height="163.13937702127654" data-palette-color="#0093fb"><path d="M17.4-27.7L17.4-27.7 17.6-29.25Q17.6-31.55 15.8-32.2L15.8-32.2Q14.4-32.65 13.65-32.65L13.65-32.65 13.6-32.65Q12.1-32.65 11-32.18 9.9-31.7 9.4-31L9.4-31Q8.35-29.55 8.2-27.95L8.2-27.95Q8.2-26.05 9.9-24.68 11.6-23.3 14.03-22.28 16.45-21.25 18.88-20.05 21.3-18.85 23-16.6 24.7-14.35 24.7-11.2L24.7-11.2Q24.7-5.05 20.83-2 16.95 1.05 12.03 1.05 7.1 1.05 3.88-1.18 0.65-3.4 0.65-7.15L0.65-7.15 0.65-7.2Q0.65-9.05 1.23-10.43 1.8-11.8 2.6-12.45L2.6-12.45Q4.25-13.8 5.6-13.9L5.6-13.9 6.2-13.95Q7.6-13.95 8.75-13.28 9.9-12.6 9.9-11.4L9.9-11.4Q9.9-10.8 9.25-10.4 8.6-10 8.13-9.2 7.65-8.4 7.6-7.85L7.6-7.85 7.5-7.3Q7.5-4.25 10.3-3.25L10.3-3.25Q11.3-2.9 11.9-2.9L11.9-2.9Q14.65-2.9 16.32-4.55 18-6.2 18-8.75L18-8.75Q18-11.8 15.4-13.7L15.4-13.7Q13.45-15.1 11.18-16.05 8.9-17 8.1-17.4 7.3-17.8 6.4-18.35 5.5-18.9 4.4-19.9L4.4-19.9Q2-22 2-25.58 2-29.15 3.95-31.6L3.95-31.6Q7.45-36.05 14.45-36.05L14.45-36.05Q18.15-36.05 20.7-34.63 23.25-33.2 23.25-30.7L23.25-30.7Q23.25-28.9 22.23-27.7 21.2-26.5 19.6-26.5L19.6-26.5Q18.85-26.5 18.13-26.8 17.4-27.1 17.4-27.7ZM27.5-7.65L27.5-7.65Q27.6-12.7 27.6-15.95 27.6-19.2 27.15-22.15L27.15-22.15Q27.15-22.65 28.15-22.65 29.15-22.65 29.87-22.4 30.6-22.15 30.9-21.85L30.9-21.85Q31.7-21.05 31.82-21.05 31.95-21.05 32.6-21.5L32.6-21.5Q34.55-22.75 36.92-22.75 39.3-22.75 41.07-21.55 42.85-20.35 43.6-18.4L43.6-18.4Q44.95-15.05 44.95-11.3L44.95-11.3Q44.95-7.6 43.6-3.9L43.6-3.9Q42.85-1.9 41.4-0.63 39.95 0.65 38 0.65L38 0.65Q34.15 0.65 34.15-3.8L34.15-3.8Q34.15-5 34.65-5L34.65-5Q34.75-5 35.22-4.78 35.7-4.55 36.15-4.55L36.15-4.55Q39.7-4.55 39.7-12.08 39.7-19.6 35.9-19.6L35.9-19.6Q34.85-19.6 34.12-19.13 33.4-18.65 33.2-18.2L33.2-18.2 33-17.7Q32.3-13.2 32.3-0.35L32.3-0.35Q32.3 5.45 32.52 7.98 32.75 10.5 32.75 11 32.75 11.5 32.45 11.9L32.45 11.9Q31.45 13.2 29.75 14.23 28.05 15.25 26.75 15.25L26.75 15.25Q26.25 15.25 26.25 14.6L26.25 14.6Q27.05 9.55 27.5-7.65ZM64.84-19.1L64.09-18.95Q63.55-18.8 63.55-18.63 63.55-18.45 64.75-18 65.95-17.55 67.02-16.6 68.09-15.65 68.55-14.3L68.55-14.3Q69.25-12.25 69.25-9.9 69.25-7.55 69.59-6.03 69.95-4.5 70.45-3.7L70.45-3.7Q71.45-2 72.3-1.6L72.3-1.6 72.65-1.4Q72.95-1.2 72.95-0.9L72.95-0.9Q72.95-0.15 70.5 0.43 68.05 1 66.7 1L66.7 1Q64.05 1 63.32-1.13 62.59-3.25 62.59-8.4L62.59-8.4 62.59-11.15Q62.59-15.5 60-16.7L60-16.7Q59-17.15 57.6-17.15L57.6-17.15 57.55-17.15Q57.1-17.15 57.1-18.03 57.1-18.9 57.62-19.8 58.15-20.7 58.55-20.7L58.55-20.7Q60.2-20.7 61.4-21.33 62.59-21.95 63.15-22.85L63.15-22.85Q64.3-24.75 64.4-26.1L64.4-26.1 64.4-26.75Q64.4-28.6 63.8-29.88 63.2-31.15 62.3-31.65L62.3-31.65Q60.8-32.45 59.25-32.45 57.7-32.45 56.7-32.2L56.7-32.2Q55.3-31.8 55.3-31.35L55.3-31.35Q54.85-24.8 54.85-18.73 54.85-12.65 55.02-9.43 55.2-6.2 55.37-4.23 55.55-2.25 55.55-1.9L55.55-1.9Q55.55-1.25 55.2-1L55.2-1Q53.15 0.9 48.75 0.9L48.75 0.9Q48 0.9 48 0.4L48 0.4Q48 0.25 48.15-0.3L48.15-0.3Q48.65-1.45 48.87-7.6 49.1-13.75 49.1-18.82 49.1-23.9 48.9-27.05L48.9-27.05Q48.6-31.8 47.9-32.75L47.9-32.75Q47.35-33.45 47.35-33.73 47.35-34 47.9-34.3L47.9-34.3Q51.1-35.8 59.5-35.8L59.5-35.8Q66.25-35.8 69.59-32L69.59-32Q71.4-29.9 71.4-26.75L71.4-26.75Q71.4-24.85 70.65-23.35 69.9-21.85 68.8-21.05L68.8-21.05Q66.7-19.45 64.84-19.1L64.84-19.1ZM78.54-12.7L78.54-12.7 78.59-11.45Q78.59-11.15 78.99-11.15L78.99-11.15Q80.59-11.3 81.79-11.98 82.99-12.65 83.59-13.5L83.59-13.5Q84.79-15.35 84.89-16.7L84.89-16.7 84.94-17.3Q84.94-20 82.79-20L82.79-20Q81.19-20 80.19-18.6L80.19-18.6Q78.54-16.4 78.54-12.7ZM89.44-6.05L89.44-6.05Q89.44-4.15 88.67-2.73 87.89-1.3 86.92-0.63 85.94 0.05 84.64 0.45L84.64 0.45Q82.99 0.95 81.49 0.95L81.49 0.95Q77.29 0.95 75.29-2.2 73.29-5.35 73.29-10.23 73.29-15.1 75.77-18.9 78.24-22.7 83.19-22.7L83.19-22.7Q87.69-22.7 89.29-19.55L89.29-19.55Q89.94-18.35 89.94-17.28 89.94-16.2 89.84-15.58 89.74-14.95 89.14-13.7 88.54-12.45 87.54-11.45 86.54-10.45 84.39-9.55 82.24-8.65 79.34-8.35L79.34-8.35Q78.94-8.35 78.94-8L78.94-8Q78.94-7.55 79.27-6.68 79.59-5.8 79.99-5.2L79.99-5.2Q81.09-3.8 83.24-3.8L83.24-3.8Q85.39-3.8 86.89-5.2L86.89-5.2Q87.69-5.95 88.19-7.05L88.19-7.05Q88.39-7.45 88.72-7.45 89.04-7.45 89.24-6.9 89.44-6.35 89.44-6.05Z" opacity="1" transform="matrix(1,0,0,1,0,0)" fill="#0093fb" class="wordmark-text-0" data-fill-palette-color="quaternary" id="text-0"></path></svg></g></svg></g></svg></g></svg></g><g></g></svg></g><defs></defs></svg><rect width="395.52" height="215.60071035460987" fill="none" stroke="none" visibility="hidden"></rect></g></svg></g></svg>